<svg width="55" height="55" xmlns="http://www.w3.org/2000/svg">

 <g>
  <title>background</title>
  <rect fill="none" id="canvas_background" height="402" width="582" y="-1" x="-1"/>
 </g>
 <g>
  <title>Layer 1</title>
  <rect stroke="null" x="9.799985" y="13.599977" id="svg_1" fill="#000" rx="27.5" height="28.400043" width="36.600029"/>
  <path id="svg_2" fill="#FFA800" d="m20.6002,0.61803c-8.5473,2.80973 -14.17392,7.48696 -18.12027,15.06457c-3.43546,6.5955 -3.2828,17.5286 0.34126,24.402c5.34128,10.1304 13.34871,14.953 24.76371,14.9152c6.1226,-0.0209 8.3916,-0.502 12.4726,-2.6464c10.1488,-5.3316 14.9802,-13.3245 14.9423,-24.7188c-0.0389,-11.463 -5.0719,-19.70391 -15.2236,-24.92795c-4.6179,-2.37546 -14.8954,-3.49497 -19.176,-2.08862zm12.3789,21.94097c4.4801,4.5408 5.2614,7.0676 2.1852,7.0676c-0.7055,0 -2.1383,-0.9482 -3.184,-2.1075c-1.8969,-2.1036 -1.9019,-2.0956 -2.3998,3.735c-0.3682,4.3077 -0.892,5.8425 -1.9956,5.8425c-1.1216,0 -1.5716,-1.4322 -1.7961,-5.72l-0.2983,-5.7201l-2.9515,2.1773c-2.294,1.6932 -3.217,1.9113 -4.147,0.9831c-0.9309,-0.9293 -0.1047,-2.3018 3.7109,-6.1683c2.6991,-2.736 5.1667,-4.974 5.482,-4.974c0.3153,0 2.743,2.1982 5.3942,4.8844z" clip-rule="evenodd" fill-rule="evenodd"/>
 </g>
</svg>